<svg xmlns="http://www.w3.org/2000/svg" viewBox="0 0 900 1600" preserveAspectRatio="xMidYMid slice">
  <defs><linearGradient id="l" x1="0" y1="0" x2="1" y2="1"><stop stop-color="#8f1533"/><stop offset="1" stop-color="#2d0718"/></linearGradient></defs>
  <path d="M0 0h205v1600H0zM900 0H695v1600h205z" fill="url(#l)"/>
  <path d="M205 0q90 330 0 720L70 560V0zm490 0q-90 330 0 720l135-160V0z" fill="#b62843"/>
  <g fill="#e2ad50"><circle cx="190" cy="670" r="44"/><circle cx="135" cy="730" r="56"/><circle cx="80" cy="810" r="48"/><circle cx="710" cy="670" r="44"/><circle cx="765" cy="730" r="56"/><circle cx="820" cy="810" r="48"/></g>
  <path d="M0 1260q120-130 250 0v340H0zm900 0q-120-130-250 0v340h250z" fill="#260713"/>
</svg>