<svg xmlns="http://www.w3.org/2000/svg" viewBox="0 0 900 1600" preserveAspectRatio="xMidYMid slice">
  <defs>
    <linearGradient id="cm-wall" x1="0" y1="0" x2="1" y2="1"><stop stop-color="#efc18c"/><stop offset=".35" stop-color="#ca725b"/><stop offset=".72" stop-color="#762942"/><stop offset="1" stop-color="#361127"/></linearGradient>
    <linearGradient id="cm-shadow" x1="0" y1="0" x2="0" y2="1"><stop stop-color="#762a44"/><stop offset="1" stop-color="#160711"/></linearGradient>
    <radialGradient id="cm-window"><stop stop-color="#f8cb83" stop-opacity=".5"/><stop offset="1" stop-color="#521735" stop-opacity=".05"/></radialGradient>
    <pattern id="cm-jali" width="28" height="28" patternUnits="userSpaceOnUse"><path d="M14 1 27 14 14 27 1 14Z" fill="none" stroke="#e8b66f" stroke-width="2"/><path d="M1 1 27 27M27 1 1 27" stroke="#8b3d43" stroke-width="1"/></pattern>
    <filter id="cm-shadowfilter"><feDropShadow dx="0" dy="16" stdDeviation="16" flood-color="#16050d" flood-opacity=".55"/></filter>
  </defs>
  <g transform="translate(0 280)" filter="url(#cm-shadowfilter)">
    <path d="M45 1090V310Q45 95 260 95h380q215 0 215 215v780Z" fill="url(#cm-wall)"/>
    <path d="M108 1090V365Q108 150 310 150h280q202 0 202 215v725Z" fill="#a84e50" opacity=".42" stroke="#f0c27f" stroke-width="10"/>
    <path d="M169 1090V438Q169 222 450 174q281 48 281 264v652Z" fill="url(#cm-window)" stroke="#e8b46c" stroke-width="16"/>
    <path d="M220 1090V463Q220 294 450 235q230 59 230 228v627Z" fill="url(#cm-shadow)" stroke="#f0ca84" stroke-width="5"/>
    <path d="M245 714V470q0-136 205-194 205 58 205 194v244Z" fill="url(#cm-jali)" opacity=".48"/>
    <g fill="url(#cm-jali)" stroke="#e9b66f" stroke-width="5"><path d="M76 650V418q0-61 48-61t48 61v232Z"/><path d="M728 650V418q0-61 48-61t48 61v232Z"/></g>
    <g fill="none" stroke="#f0c77f" opacity=".6"><path d="M61 744h123M716 744h123" stroke-width="7"/><path d="M78 782h90M732 782h90" stroke-width="4"/></g>
    <path d="M45 1090h810v300H45Z" fill="#431426"/><path d="M45 1090 450 955l405 135v300H45Z" fill="#b96a55" opacity=".4"/>
    <path d="M220 1090h460" stroke="#e5af68" stroke-width="12"/>
    <g fill="#c9944c"><path d="M96 1078h64l-9-135h-46Z"/><path d="M740 1078h64l-9-135h-46Z"/></g>
    <g fill="#f3c867"><circle cx="128" cy="921" r="30"/><circle cx="772" cy="921" r="30"/></g>
    <g fill="#6d1f36" stroke="#d8a154" stroke-width="4"><path d="M67 894h122v34H67zM711 894h122v34H711z"/></g>
  </g>
</svg>
