<svg xmlns="http://www.w3.org/2000/svg" viewBox="0 0 900 1600" preserveAspectRatio="xMidYMid slice">
  <defs>
    <linearGradient id="sky" x1="0" y1="0" x2="0" y2="1"><stop stop-color="#3c1334"/><stop offset=".48" stop-color="#b74d5f"/><stop offset=".78" stop-color="#efa26f"/><stop offset="1" stop-color="#6d2433"/></linearGradient>
    <radialGradient id="sun"><stop stop-color="#fff8d8"/><stop offset=".35" stop-color="#ffd69a" stop-opacity=".92"/><stop offset="1" stop-color="#ffb477" stop-opacity="0"/></radialGradient>
    <filter id="blur"><feGaussianBlur stdDeviation="22"/></filter>
  </defs>
  <rect width="900" height="1600" fill="url(#sky)"/>
  <circle cx="450" cy="650" r="300" fill="url(#sun)"/>
  <g fill="#ffd9c3" opacity=".13" filter="url(#blur)"><ellipse cx="180" cy="380" rx="250" ry="70"/><ellipse cx="730" cy="500" rx="300" ry="82"/><ellipse cx="410" cy="230" rx="200" ry="45"/></g>
  <g fill="none" stroke="#3b1722" stroke-width="5" opacity=".42"><path d="M630 300q22-22 44 0q22-22 44 0"/><path d="M175 445q15-15 30 0q15-15 30 0"/></g>
  <g opacity=".22" fill="#4b1830"><path d="M0 1180Q120 1080 240 1190T490 1180T900 1140V1600H0Z"/><path d="M0 1270Q160 1160 310 1260T610 1240T900 1200V1600H0Z"/></g>
</svg>