<svg xmlns="http://www.w3.org/2000/svg" viewBox="0 0 900 1600" preserveAspectRatio="xMidYMid slice">
  <defs>
    <linearGradient id="sf-drape" x1="0" y1="0" x2="1" y2="1"><stop stop-color="#651650"/><stop offset=".5" stop-color="#2a0b35"/><stop offset="1" stop-color="#090515"/></linearGradient>
    <radialGradient id="sf-glow"><stop stop-color="#ffe79a" stop-opacity=".8"/><stop offset="1" stop-color="#d98232" stop-opacity="0"/></radialGradient>
    <filter id="sf-soft"><feGaussianBlur stdDeviation="12"/></filter>
  </defs>
  <path d="M0 0h152v1600H0zm748 0h152v1600H748Z" fill="url(#sf-drape)"/>
  <path d="M0 0h900v105H0zM0 105q130 95 260 0 130 95 260 0 130 95 260 0 60 44 120 25V0H0Z" fill="#11051b"/>
  <path d="M126 0q42 280 9 610M774 0q-42 280-9 610" stroke="#bc874d" stroke-width="7"/>
  <g><circle cx="135" cy="585" r="100" fill="url(#sf-glow)" filter="url(#sf-soft)"/><circle cx="765" cy="585" r="100" fill="url(#sf-glow)" filter="url(#sf-soft)"/></g>
  <g fill="#efc86f" stroke="#765033" stroke-width="4"><path d="m103 567 32 65 32-65-32-32Z"/><path d="m733 567 32 65 32-65-32-32Z"/></g>
  <!-- foreground guests create cinematic occlusion -->
  <g fill="#090713">
    <path d="M0 1162q34-66 88-71 55 5 76 67l54 442H0Z"/><ellipse cx="88" cy="1046" rx="48" ry="59"/><path d="M900 1162q-34-66-88-71-55 5-76 67l-54 442h218Z"/><ellipse cx="812" cy="1046" rx="48" ry="59"/>
    <path d="M142 1250q36-74 91-70 59 9 80 85l29 335H117Z"/><ellipse cx="231" cy="1122" rx="43" ry="54"/><path d="M758 1250q-36-74-91-70-59 9-80 85l-29 335h225Z"/><ellipse cx="669" cy="1122" rx="43" ry="54"/>
  </g>
  <path d="M0 1500q218-70 425-10 207 60 475-12v122H0Z" fill="#05040c"/>
  <g fill="#d7a653" opacity=".38"><circle cx="190" cy="990" r="5"/><circle cx="714" cy="946" r="6"/><circle cx="322" cy="1160" r="4"/><circle cx="575" cy="1090" r="5"/></g>
</svg>
